<svg xmlns="http://www.w3.org/2000/svg" viewBox="0 0 900 450" width="900" height="450">
  <defs>
    <linearGradient id="flame" x1="0" y1="0" x2="1" y2="0">
      <stop offset="0%" stop-color="#FF4500"/>
      <stop offset="40%" stop-color="#FF7000"/>
      <stop offset="100%" stop-color="#FFB800"/>
    </linearGradient>
  </defs>
  <rect width="900" height="450" fill="#0d0d0d"/>

  <text x="450" y="50" font-family="Hack, monospace" font-size="28" fill="url(#flame)"
        text-anchor="middle" font-weight="bold">5 Mistral Models</text>

  <!-- Model rows -->
  <g font-family="Hack, monospace" font-size="18">
    <!-- Devstral -->
    <text x="60" y="115" fill="#6644FF" font-weight="bold">Devstral 2</text>
    <text x="310" y="115" fill="#888">Coding agent</text>
    <text x="610" y="115" fill="#555">core engine</text>

    <!-- Voxtral -->
    <text x="60" y="170" fill="#44DD44" font-weight="bold">Voxtral Mini</text>
    <text x="310" y="170" fill="#888">Voice transcription</text>
    <text x="610" y="170" fill="#555">$0.003/min</text>

    <!-- Ministral -->
    <text x="60" y="225" fill="#FFB800" font-weight="bold">Ministral 8B</text>
    <text x="310" y="225" fill="#888">Notification copy + urgency</text>
    <text x="610" y="225" fill="#555">smart alerts</text>

    <!-- Small -->
    <text x="60" y="280" fill="#FF7000" font-weight="bold">Mistral Small</text>
    <text x="310" y="280" fill="#888">EN ↔ JA translation</text>
    <text x="610" y="280" fill="#555">per-message</text>

    <!-- Large (stretch) -->
    <text x="60" y="335" fill="#FF4500" font-weight="bold">Mistral Large 3</text>
    <text x="310" y="335" fill="#888">Camera / image analysis</text>
    <text x="610" y="335" fill="#444" font-style="italic">stretch goal</text>
  </g>

  <!-- divider lines -->
  <line x1="50" y1="85" x2="850" y2="85" stroke="#333" stroke-width="1"/>
  <line x1="50" y1="140" x2="850" y2="140" stroke="#222" stroke-width="1"/>
  <line x1="50" y1="195" x2="850" y2="195" stroke="#222" stroke-width="1"/>
  <line x1="50" y1="250" x2="850" y2="250" stroke="#222" stroke-width="1"/>
  <line x1="50" y1="305" x2="850" y2="305" stroke="#222" stroke-width="1"/>

  <!-- footer -->
  <text x="450" y="420" font-family="Hack, monospace" font-size="14" fill="#444"
        text-anchor="middle">All models via Mistral API · no self-hosting required</text>
</svg>
